# xmcd
#
# Track frame offsets: 
#        150
#        21840
#        32207
#        48602
#        58807
#        75740
#        102060
#        128555
#        148022
#        161659
#
# Disc length: 2495 seconds
#
# Revision: 5
# Processed by: cddbd v1.5.2PL0 Copyright (c) Steve Scherf et al.
# Submitted via: ExactAudioCopy v0.90b4
#
DISCID=8409bd0a
DTITLE=R.L. Burnside - A Ass Pocket Of Whiskey
DYEAR=1996
DGENRE=Blues
TTITLE0=Goin' Down South
TTITLE1=Boogie Chillen
TTITLE2=Poor Boy
TTITLE3=2 Brothers
TTITLE4=Snake Drive
TTITLE5=Shake 'em On Down
TTITLE6=The Criminal Inside Me
TTITLE7=Walkin' Blues
TTITLE8=Tojo Told Hitler
TTITLE9=Have You Ever Been Lonely ?
EXTD=
EXTT0=
EXTT1=
EXTT2=
EXTT3=
EXTT4=
EXTT5=
EXTT6=
EXTT7=
EXTT8=
EXTT9=
PLAYORDER=
